<mxfile host="app.diagrams.net" agent="Mozilla/5.0 (X11; Linux x86_64) AppleWebKit/537.36 (KHTML, like Gecko) Chrome/136.0.0.0 Safari/537.36" version="28.2.5">
  <diagram name="Page-1" id="bk3-iYzQ9niiOuwprzlt">
    <mxGraphModel dx="773" dy="576" grid="1" gridSize="10" guides="1" tooltips="1" connect="1" arrows="1" fold="1" page="1" pageScale="1" pageWidth="827" pageHeight="1169" math="0" shadow="0">
      <root>
        <mxCell id="0" />
        <mxCell id="1" parent="0" />
        <mxCell id="9YAnmlRCJBxZf-ctOtcH-1" value="Q1" style="verticalLabelPosition=middle;shadow=0;dashed=0;align=left;html=1;verticalAlign=middle;shape=mxgraph.electrical.transistors.pnp_transistor_5;labelPosition=right;" vertex="1" parent="1">
          <mxGeometry x="456" y="270" width="64" height="100" as="geometry" />
        </mxCell>
        <mxCell id="9YAnmlRCJBxZf-ctOtcH-2" value="R2" style="pointerEvents=1;verticalLabelPosition=top;shadow=0;dashed=0;align=center;html=1;verticalAlign=bottom;shape=mxgraph.electrical.resistors.resistor_1;labelPosition=center;" vertex="1" parent="1">
          <mxGeometry x="340" y="310" width="100" height="20" as="geometry" />
        </mxCell>
        <mxCell id="9YAnmlRCJBxZf-ctOtcH-4" value="" style="pointerEvents=1;verticalLabelPosition=bottom;shadow=0;dashed=0;align=center;html=1;verticalAlign=top;shape=mxgraph.electrical.miscellaneous.chassis;" vertex="1" parent="1">
          <mxGeometry x="480" y="590" width="65" height="32" as="geometry" />
        </mxCell>
        <mxCell id="9YAnmlRCJBxZf-ctOtcH-5" value="R1" style="pointerEvents=1;verticalLabelPosition=top;shadow=0;dashed=0;align=center;html=1;verticalAlign=bottom;shape=mxgraph.electrical.resistors.resistor_1;direction=south;labelPosition=center;" vertex="1" parent="1">
          <mxGeometry x="230" y="320" width="20" height="100" as="geometry" />
        </mxCell>
        <mxCell id="9YAnmlRCJBxZf-ctOtcH-6" value="D1" style="pointerEvents=1;fillColor=strokeColor;verticalLabelPosition=top;shadow=0;dashed=0;align=center;html=1;verticalAlign=bottom;shape=mxgraph.electrical.diodes.zener_diode_1;direction=north;labelPosition=center;" vertex="1" parent="1">
          <mxGeometry x="280" y="320" width="60" height="100" as="geometry" />
        </mxCell>
        <mxCell id="9YAnmlRCJBxZf-ctOtcH-7" value="C1" style="pointerEvents=1;verticalLabelPosition=top;shadow=0;dashed=0;align=center;html=1;verticalAlign=bottom;shape=mxgraph.electrical.capacitors.capacitor_1;direction=south;labelPosition=center;" vertex="1" parent="1">
          <mxGeometry x="90" y="320" width="60" height="100" as="geometry" />
        </mxCell>
        <mxCell id="9YAnmlRCJBxZf-ctOtcH-8" value="C2" style="pointerEvents=1;verticalLabelPosition=top;shadow=0;dashed=0;align=center;html=1;verticalAlign=bottom;shape=mxgraph.electrical.capacitors.capacitor_5;direction=south;labelPosition=center;" vertex="1" parent="1">
          <mxGeometry x="160" y="320" width="60" height="100" as="geometry" />
        </mxCell>
        <mxCell id="9YAnmlRCJBxZf-ctOtcH-10" value="12Vdc&lt;div&gt;Buzzer&lt;/div&gt;" style="pointerEvents=1;verticalLabelPosition=middle;shadow=0;dashed=0;align=left;html=1;verticalAlign=middle;shape=mxgraph.electrical.electro-mechanical.buzzer;direction=west;labelPosition=right;noLabel=0;" vertex="1" parent="1">
          <mxGeometry x="520" y="490" width="45" height="60" as="geometry" />
        </mxCell>
        <mxCell id="9YAnmlRCJBxZf-ctOtcH-14" value="R3" style="pointerEvents=1;verticalLabelPosition=top;shadow=0;dashed=0;align=center;html=1;verticalAlign=bottom;shape=mxgraph.electrical.resistors.resistor_1;direction=south;labelPosition=center;" vertex="1" parent="1">
          <mxGeometry x="380" y="480" width="20" height="100" as="geometry" />
        </mxCell>
        <mxCell id="9YAnmlRCJBxZf-ctOtcH-15" value="D2" style="pointerEvents=1;fillColor=strokeColor;verticalLabelPosition=top;shadow=0;dashed=0;align=center;html=1;verticalAlign=bottom;shape=mxgraph.electrical.diodes.zener_diode_1;direction=north;labelPosition=center;" vertex="1" parent="1">
          <mxGeometry x="430" y="480" width="60" height="100" as="geometry" />
        </mxCell>
        <mxCell id="9YAnmlRCJBxZf-ctOtcH-16" value="C3" style="pointerEvents=1;verticalLabelPosition=top;shadow=0;dashed=0;align=center;html=1;verticalAlign=bottom;shape=mxgraph.electrical.capacitors.capacitor_1;direction=south;labelPosition=center;" vertex="1" parent="1">
          <mxGeometry x="240" y="480" width="60" height="100" as="geometry" />
        </mxCell>
        <mxCell id="9YAnmlRCJBxZf-ctOtcH-17" value="C4" style="pointerEvents=1;verticalLabelPosition=top;shadow=0;dashed=0;align=center;html=1;verticalAlign=bottom;shape=mxgraph.electrical.capacitors.capacitor_5;direction=south;labelPosition=center;" vertex="1" parent="1">
          <mxGeometry x="310" y="480" width="60" height="100" as="geometry" />
        </mxCell>
        <mxCell id="9YAnmlRCJBxZf-ctOtcH-18" value="" style="endArrow=none;html=1;rounded=0;entryX=0.471;entryY=0.731;entryDx=0;entryDy=0;entryPerimeter=0;" edge="1" parent="1" source="9YAnmlRCJBxZf-ctOtcH-42" target="9YAnmlRCJBxZf-ctOtcH-43">
          <mxGeometry width="50" height="50" relative="1" as="geometry">
            <mxPoint x="360" y="320" as="sourcePoint" />
            <mxPoint x="80" y="320" as="targetPoint" />
          </mxGeometry>
        </mxCell>
        <mxCell id="9YAnmlRCJBxZf-ctOtcH-19" value="" style="pointerEvents=1;verticalLabelPosition=bottom;shadow=0;dashed=0;align=center;html=1;verticalAlign=top;shape=mxgraph.electrical.miscellaneous.chassis;" vertex="1" parent="1">
          <mxGeometry x="80" y="420" width="65" height="32" as="geometry" />
        </mxCell>
        <mxCell id="9YAnmlRCJBxZf-ctOtcH-20" value="" style="endArrow=none;html=1;rounded=0;exitDx=0;exitDy=0;exitPerimeter=0;" edge="1" parent="1" source="9YAnmlRCJBxZf-ctOtcH-45">
          <mxGeometry width="50" height="50" relative="1" as="geometry">
            <mxPoint x="260" y="470" as="sourcePoint" />
            <mxPoint x="310" y="420" as="targetPoint" />
          </mxGeometry>
        </mxCell>
        <mxCell id="9YAnmlRCJBxZf-ctOtcH-21" value="" style="endArrow=none;html=1;rounded=0;exitX=1;exitY=0.665;exitDx=0;exitDy=0;exitPerimeter=0;" edge="1" parent="1" source="9YAnmlRCJBxZf-ctOtcH-10">
          <mxGeometry width="50" height="50" relative="1" as="geometry">
            <mxPoint x="520" y="340" as="sourcePoint" />
            <mxPoint x="520" y="370" as="targetPoint" />
          </mxGeometry>
        </mxCell>
        <mxCell id="9YAnmlRCJBxZf-ctOtcH-22" value="" style="endArrow=none;html=1;rounded=0;exitX=0;exitY=0.5;exitDx=0;exitDy=0;exitPerimeter=0;" edge="1" parent="1" source="9YAnmlRCJBxZf-ctOtcH-16">
          <mxGeometry width="50" height="50" relative="1" as="geometry">
            <mxPoint x="280" y="220" as="sourcePoint" />
            <mxPoint x="520" y="480" as="targetPoint" />
          </mxGeometry>
        </mxCell>
        <mxCell id="9YAnmlRCJBxZf-ctOtcH-28" value="" style="shape=waypoint;sketch=0;fillStyle=solid;size=6;pointerEvents=1;points=[];fillColor=none;resizable=0;rotatable=0;perimeter=centerPerimeter;snapToPoint=1;" vertex="1" parent="1">
          <mxGeometry x="380" y="580" width="20" height="20" as="geometry" />
        </mxCell>
        <mxCell id="9YAnmlRCJBxZf-ctOtcH-29" value="" style="shape=waypoint;sketch=0;fillStyle=solid;size=6;pointerEvents=1;points=[];fillColor=none;resizable=0;rotatable=0;perimeter=centerPerimeter;snapToPoint=1;" vertex="1" parent="1">
          <mxGeometry x="450" y="580" width="20" height="20" as="geometry" />
        </mxCell>
        <mxCell id="9YAnmlRCJBxZf-ctOtcH-30" value="" style="shape=waypoint;sketch=0;fillStyle=solid;size=6;pointerEvents=1;points=[];fillColor=none;resizable=0;rotatable=0;perimeter=centerPerimeter;snapToPoint=1;" vertex="1" parent="1">
          <mxGeometry x="380" y="470" width="20" height="20" as="geometry" />
        </mxCell>
        <mxCell id="9YAnmlRCJBxZf-ctOtcH-31" value="" style="shape=waypoint;sketch=0;fillStyle=solid;size=6;pointerEvents=1;points=[];fillColor=none;resizable=0;rotatable=0;perimeter=centerPerimeter;snapToPoint=1;" vertex="1" parent="1">
          <mxGeometry x="330" y="470" width="20" height="20" as="geometry" />
        </mxCell>
        <mxCell id="9YAnmlRCJBxZf-ctOtcH-32" value="" style="shape=waypoint;sketch=0;fillStyle=solid;size=6;pointerEvents=1;points=[];fillColor=none;resizable=0;rotatable=0;perimeter=centerPerimeter;snapToPoint=1;" vertex="1" parent="1">
          <mxGeometry x="330" y="580" width="20" height="20" as="geometry" />
        </mxCell>
        <mxCell id="9YAnmlRCJBxZf-ctOtcH-33" value="" style="shape=waypoint;sketch=0;fillStyle=solid;size=6;pointerEvents=1;points=[];fillColor=none;resizable=0;rotatable=0;perimeter=centerPerimeter;snapToPoint=1;" vertex="1" parent="1">
          <mxGeometry x="510" y="580" width="20" height="20" as="geometry" />
        </mxCell>
        <mxCell id="9YAnmlRCJBxZf-ctOtcH-34" value="" style="shape=waypoint;sketch=0;fillStyle=solid;size=6;pointerEvents=1;points=[];fillColor=none;resizable=0;rotatable=0;perimeter=centerPerimeter;snapToPoint=1;" vertex="1" parent="1">
          <mxGeometry x="450" y="470" width="20" height="20" as="geometry" />
        </mxCell>
        <mxCell id="9YAnmlRCJBxZf-ctOtcH-37" value="" style="endArrow=none;html=1;rounded=0;exitX=1;exitY=0.5;exitDx=0;exitDy=0;exitPerimeter=0;" edge="1" parent="1" source="9YAnmlRCJBxZf-ctOtcH-16" target="9YAnmlRCJBxZf-ctOtcH-32">
          <mxGeometry width="50" height="50" relative="1" as="geometry">
            <mxPoint x="390" y="420" as="sourcePoint" />
            <mxPoint x="440" y="370" as="targetPoint" />
            <Array as="points">
              <mxPoint x="270" y="590" />
            </Array>
          </mxGeometry>
        </mxCell>
        <mxCell id="9YAnmlRCJBxZf-ctOtcH-38" value="" style="endArrow=none;html=1;rounded=0;exitX=1;exitY=0.5;exitDx=0;exitDy=0;exitPerimeter=0;" edge="1" parent="1" source="9YAnmlRCJBxZf-ctOtcH-17" target="9YAnmlRCJBxZf-ctOtcH-28">
          <mxGeometry width="50" height="50" relative="1" as="geometry">
            <mxPoint x="390" y="420" as="sourcePoint" />
            <mxPoint x="440" y="370" as="targetPoint" />
            <Array as="points">
              <mxPoint x="340" y="590" />
            </Array>
          </mxGeometry>
        </mxCell>
        <mxCell id="9YAnmlRCJBxZf-ctOtcH-39" value="" style="endArrow=none;html=1;rounded=0;exitX=1;exitY=0.5;exitDx=0;exitDy=0;exitPerimeter=0;" edge="1" parent="1" source="9YAnmlRCJBxZf-ctOtcH-14" target="9YAnmlRCJBxZf-ctOtcH-29">
          <mxGeometry width="50" height="50" relative="1" as="geometry">
            <mxPoint x="390" y="420" as="sourcePoint" />
            <mxPoint x="440" y="370" as="targetPoint" />
            <Array as="points">
              <mxPoint x="390" y="590" />
            </Array>
          </mxGeometry>
        </mxCell>
        <mxCell id="9YAnmlRCJBxZf-ctOtcH-40" value="" style="endArrow=none;html=1;rounded=0;entryX=1;entryY=0.335;entryDx=0;entryDy=0;entryPerimeter=0;exitX=0;exitY=0.5;exitDx=0;exitDy=0;exitPerimeter=0;" edge="1" parent="1" source="9YAnmlRCJBxZf-ctOtcH-15" target="9YAnmlRCJBxZf-ctOtcH-10">
          <mxGeometry width="50" height="50" relative="1" as="geometry">
            <mxPoint x="390" y="420" as="sourcePoint" />
            <mxPoint x="440" y="370" as="targetPoint" />
            <Array as="points">
              <mxPoint x="460" y="590" />
              <mxPoint x="520" y="590" />
            </Array>
          </mxGeometry>
        </mxCell>
        <mxCell id="9YAnmlRCJBxZf-ctOtcH-43" value="" style="shape=waypoint;sketch=0;fillStyle=solid;size=6;pointerEvents=1;points=[];fillColor=none;resizable=0;rotatable=0;perimeter=centerPerimeter;snapToPoint=1;" vertex="1" parent="1">
          <mxGeometry x="110" y="310" width="20" height="20" as="geometry" />
        </mxCell>
        <mxCell id="9YAnmlRCJBxZf-ctOtcH-44" value="" style="shape=waypoint;sketch=0;fillStyle=solid;size=6;pointerEvents=1;points=[];fillColor=none;resizable=0;rotatable=0;perimeter=centerPerimeter;snapToPoint=1;" vertex="1" parent="1">
          <mxGeometry x="110" y="410" width="20" height="20" as="geometry" />
        </mxCell>
        <mxCell id="9YAnmlRCJBxZf-ctOtcH-46" value="" style="shape=waypoint;sketch=0;fillStyle=solid;size=6;pointerEvents=1;points=[];fillColor=none;resizable=0;rotatable=0;perimeter=centerPerimeter;snapToPoint=1;" vertex="1" parent="1">
          <mxGeometry x="230" y="410" width="20" height="20" as="geometry" />
        </mxCell>
        <mxCell id="9YAnmlRCJBxZf-ctOtcH-47" value="" style="endArrow=none;html=1;rounded=0;exitX=1;exitY=0.5;exitDx=0;exitDy=0;exitPerimeter=0;" edge="1" parent="1" source="9YAnmlRCJBxZf-ctOtcH-7" target="9YAnmlRCJBxZf-ctOtcH-45">
          <mxGeometry width="50" height="50" relative="1" as="geometry">
            <mxPoint x="120" y="420" as="sourcePoint" />
            <mxPoint x="310" y="420" as="targetPoint" />
          </mxGeometry>
        </mxCell>
        <mxCell id="9YAnmlRCJBxZf-ctOtcH-45" value="" style="shape=waypoint;sketch=0;fillStyle=solid;size=6;pointerEvents=1;points=[];fillColor=none;resizable=0;rotatable=0;perimeter=centerPerimeter;snapToPoint=1;" vertex="1" parent="1">
          <mxGeometry x="180" y="410" width="20" height="20" as="geometry" />
        </mxCell>
        <mxCell id="9YAnmlRCJBxZf-ctOtcH-48" value="" style="endArrow=none;html=1;rounded=0;" edge="1" parent="1" source="9YAnmlRCJBxZf-ctOtcH-26" target="9YAnmlRCJBxZf-ctOtcH-42">
          <mxGeometry width="50" height="50" relative="1" as="geometry">
            <mxPoint x="360" y="320" as="sourcePoint" />
            <mxPoint x="80" y="320" as="targetPoint" />
          </mxGeometry>
        </mxCell>
        <mxCell id="9YAnmlRCJBxZf-ctOtcH-42" value="" style="shape=waypoint;sketch=0;fillStyle=solid;size=6;pointerEvents=1;points=[];fillColor=none;resizable=0;rotatable=0;perimeter=centerPerimeter;snapToPoint=1;" vertex="1" parent="1">
          <mxGeometry x="180" y="310" width="20" height="20" as="geometry" />
        </mxCell>
        <mxCell id="9YAnmlRCJBxZf-ctOtcH-49" value="" style="endArrow=none;html=1;rounded=0;" edge="1" parent="1" source="9YAnmlRCJBxZf-ctOtcH-52" target="9YAnmlRCJBxZf-ctOtcH-26">
          <mxGeometry width="50" height="50" relative="1" as="geometry">
            <mxPoint x="360" y="320" as="sourcePoint" />
            <mxPoint x="190" y="320" as="targetPoint" />
          </mxGeometry>
        </mxCell>
        <mxCell id="9YAnmlRCJBxZf-ctOtcH-26" value="" style="shape=waypoint;sketch=0;fillStyle=solid;size=6;pointerEvents=1;points=[];fillColor=none;resizable=0;rotatable=0;perimeter=centerPerimeter;snapToPoint=1;" vertex="1" parent="1">
          <mxGeometry x="230" y="310" width="20" height="20" as="geometry" />
        </mxCell>
        <mxCell id="9YAnmlRCJBxZf-ctOtcH-53" value="" style="shape=waypoint;sketch=0;fillStyle=solid;size=6;pointerEvents=1;points=[];fillColor=none;resizable=0;rotatable=0;perimeter=centerPerimeter;snapToPoint=1;" vertex="1" parent="1">
          <mxGeometry x="510" y="470" width="20" height="20" as="geometry" />
        </mxCell>
        <mxCell id="9YAnmlRCJBxZf-ctOtcH-52" value="" style="shape=waypoint;sketch=0;fillStyle=solid;size=6;pointerEvents=1;points=[];fillColor=none;resizable=0;rotatable=0;perimeter=centerPerimeter;snapToPoint=1;" vertex="1" parent="1">
          <mxGeometry x="300" y="310" width="20" height="20" as="geometry" />
        </mxCell>
        <mxCell id="9YAnmlRCJBxZf-ctOtcH-55" value="" style="endArrow=none;html=1;rounded=0;" edge="1" parent="1">
          <mxGeometry width="50" height="50" relative="1" as="geometry">
            <mxPoint x="440" y="320" as="sourcePoint" />
            <mxPoint x="456" y="320" as="targetPoint" />
          </mxGeometry>
        </mxCell>
        <mxCell id="9YAnmlRCJBxZf-ctOtcH-56" value="" style="endArrow=none;html=1;rounded=0;entryX=0.031;entryY=0.512;entryDx=0;entryDy=0;entryPerimeter=0;" edge="1" parent="1" source="9YAnmlRCJBxZf-ctOtcH-52" target="9YAnmlRCJBxZf-ctOtcH-2">
          <mxGeometry width="50" height="50" relative="1" as="geometry">
            <mxPoint x="390" y="390" as="sourcePoint" />
            <mxPoint x="440" y="340" as="targetPoint" />
          </mxGeometry>
        </mxCell>
        <mxCell id="9YAnmlRCJBxZf-ctOtcH-57" value="" style="endArrow=none;html=1;rounded=0;entryX=1;entryY=0;entryDx=0;entryDy=0;entryPerimeter=0;" edge="1" parent="1" target="9YAnmlRCJBxZf-ctOtcH-1">
          <mxGeometry width="50" height="50" relative="1" as="geometry">
            <mxPoint x="40" y="240" as="sourcePoint" />
            <mxPoint x="440" y="340" as="targetPoint" />
            <Array as="points">
              <mxPoint x="520" y="240" />
            </Array>
          </mxGeometry>
        </mxCell>
        <mxCell id="9YAnmlRCJBxZf-ctOtcH-58" value="CAR LIGHTS (12V)" style="text;html=1;align=center;verticalAlign=middle;resizable=0;points=[];autosize=1;strokeColor=none;fillColor=none;" vertex="1" parent="1">
          <mxGeometry x="35" y="216" width="130" height="30" as="geometry" />
        </mxCell>
        <mxCell id="9YAnmlRCJBxZf-ctOtcH-59" value="CAR&amp;nbsp;&lt;span style=&quot;background-color: transparent; color: light-dark(rgb(0, 0, 0), rgb(255, 255, 255));&quot;&gt;IGNITION&lt;/span&gt;&lt;div&gt;&lt;div&gt;(12V)&lt;/div&gt;&lt;/div&gt;" style="text;html=1;align=center;verticalAlign=middle;resizable=0;points=[];autosize=1;strokeColor=none;fillColor=none;" vertex="1" parent="1">
          <mxGeometry x="35" y="270" width="110" height="40" as="geometry" />
        </mxCell>
        <mxCell id="9YAnmlRCJBxZf-ctOtcH-63" value="" style="endArrow=none;html=1;rounded=0;" edge="1" parent="1" target="9YAnmlRCJBxZf-ctOtcH-43">
          <mxGeometry width="50" height="50" relative="1" as="geometry">
            <mxPoint x="40" y="320" as="sourcePoint" />
            <mxPoint x="80" y="320" as="targetPoint" />
          </mxGeometry>
        </mxCell>
        <mxCell id="9YAnmlRCJBxZf-ctOtcH-64" value="Circuit Diagram:&amp;nbsp;&lt;div&gt;Car Lights-On&amp;nbsp;&lt;div&gt;Warning&lt;/div&gt;&lt;/div&gt;" style="text;html=1;align=center;verticalAlign=middle;resizable=0;points=[];autosize=1;strokeColor=none;fillColor=none;fontStyle=1;fontSize=20;" vertex="1" parent="1">
          <mxGeometry x="580" y="350" width="170" height="90" as="geometry" />
        </mxCell>
      </root>
    </mxGraphModel>
  </diagram>
</mxfile>
